<svg width="92" height="101" viewBox="0 0 92 101" fill="none" xmlns="http://www.w3.org/2000/svg">
<path d="M20.9485 58.5339C20.9485 55.2202 23.6348 52.5339 26.9485 52.5339H77.4636C78.4936 52.5339 79.0808 54.2509 78.4269 55.0468C77.24 56.4913 76.1357 58.561 76.1357 61.2615C76.1357 64.0757 77.3348 66.2425 78.5771 67.7321C79.2287 68.5136 78.6585 70.1515 77.641 70.1515H26.9485C23.6348 70.1515 20.9485 67.4652 20.9485 64.1515V58.5339Z" fill="black"/>
<path d="M51.1555 24.0345C51.1555 28.5837 48.0812 33.919 41.9327 33.919C35.7842 33.919 32.7099 28.5837 32.7099 24.0345C32.7099 19.13 35.6213 18.0656 38.777 18.169C40.0721 18.2115 41.9327 19.294 41.9327 19.294C41.9327 19.294 43.7933 18.2115 45.0884 18.169C48.2441 18.0656 51.1555 19.0923 51.1555 24.0345Z" fill="white" stroke="black" stroke-width="2" stroke-linecap="round" stroke-linejoin="round"/>
<path d="M44.6611 30.9658C45.6218 30.558 47.72 28.9577 48.4271 25.8189" stroke="black" stroke-width="2" stroke-linecap="round" stroke-linejoin="round"/>
<path d="M42.1708 18.965C40.2758 18.9846 38.5427 17.5737 38.0851 13.5487C39.8905 14.3213 42.831 13.9593 42.1708 18.965Z" fill="white" stroke="black" stroke-width="2" stroke-linecap="round" stroke-linejoin="round"/>
<path d="M42.2017 18.9003C43.0471 17.7402 44.3153 14.1542 43.2201 11.5386" stroke="black" stroke-width="2" stroke-linecap="round" stroke-linejoin="round"/>
<path d="M36.8607 25.384C36.4662 24.5723 36.3548 23.2334 36.7576 22.204" stroke="black" stroke-width="2" stroke-linecap="round" stroke-linejoin="round"/>
<path d="M15.8303 39.5365C15.8303 36.9218 17.7611 34.8022 20.1428 34.8022H71.5538C71.5538 34.8022 67.5727 37.6232 67.1582 42.9545C66.7437 48.2858 71.5538 51.0698 71.5538 51.0698H20.1428C17.7611 51.0698 15.8303 48.9501 15.8303 46.3354V39.5365Z" fill="white"/>
<path fill-rule="evenodd" clip-rule="evenodd" d="M72.3362 36.1261C72.3356 36.1265 72.335 36.127 72.3343 36.1274L72.3204 36.1379C72.3021 36.1516 72.2705 36.1757 72.2274 36.2101C72.1411 36.279 72.0093 36.3886 71.8462 36.538C71.5187 36.838 71.0718 37.292 70.6132 37.8927C69.6929 39.0983 68.7654 40.8397 68.5905 43.0887C68.4295 45.1602 69.2686 46.7709 70.2547 47.9384C70.7459 48.52 71.2529 48.9641 71.6375 49.262C71.8285 49.4099 71.9856 49.519 72.0903 49.5883C72.1426 49.6229 72.1815 49.6474 72.2047 49.6617C72.2162 49.6689 72.2239 49.6735 72.2272 49.6755L72.2261 49.6748L72.2252 49.6743C72.2264 49.675 72.2276 49.6757 72.2287 49.6764C72.8104 50.0159 73.1076 50.7464 72.9493 51.4489C72.7905 52.1532 72.2147 52.6479 71.5538 52.6479H20.1428C16.9672 52.6479 14.3928 49.8217 14.3928 46.3354V39.5365C14.3928 36.0502 16.9672 33.224 20.1428 33.224H71.5538C72.1912 33.224 72.7525 33.6848 72.9327 34.3561C73.1124 35.0253 72.8703 35.7445 72.338 36.1248C72.3374 36.1252 72.3368 36.1256 72.3362 36.1261ZM69.6327 49.4916C70.6336 50.5371 71.5538 51.0698 71.5538 51.0698H20.1428C17.7611 51.0698 15.8303 48.9501 15.8303 46.3354V39.5365C15.8303 36.9218 17.7611 34.8022 20.1428 34.8022H71.5538C71.5538 34.8022 70.7994 35.3367 69.9132 36.3803C68.7636 37.7339 67.3923 39.944 67.1582 42.9545C66.925 45.9538 68.3455 48.1469 69.6327 49.4916Z" fill="black"/>
<path d="M12.1412 76.35C12.1412 73.7352 14.0719 71.6156 16.4537 71.6156H67.8647C67.8647 71.6156 64.254 74.0939 63.6543 79.6459C63.0546 85.1979 67.8647 87.8832 67.8647 87.8832H16.4537C14.072 87.8832 12.1412 85.7636 12.1412 83.1488V76.35Z" fill="white"/>
<path fill-rule="evenodd" clip-rule="evenodd" d="M68.6303 72.9513C68.6302 72.9514 68.6305 72.9512 68.6303 72.9513C68.6295 72.9518 68.6287 72.9524 68.6279 72.9529C68.6279 72.9529 68.628 72.9529 68.6279 72.9529M66.2598 73.1937C67.1251 72.1232 67.8647 71.6156 67.8647 71.6156H16.4537C14.0719 71.6156 12.1412 73.7352 12.1412 76.35V83.1488C12.1412 85.7636 14.072 87.8832 16.4537 87.8832H67.8647C67.8647 87.8832 66.9317 87.3623 65.9387 86.3051C64.6771 84.9618 63.3187 82.7526 63.6543 79.6459C63.9826 76.6067 65.2131 74.4885 66.2598 73.1937ZM68.5173 86.4771C68.5187 86.4779 68.5201 86.4787 68.5215 86.4795C68.5221 86.4798 68.5222 86.4799 68.5215 86.4795C69.1107 86.8117 69.4171 87.5433 69.2626 88.251C69.1077 88.9608 68.5296 89.4613 67.8647 89.4613H16.4537C13.278 89.4613 10.7037 86.6351 10.7037 83.1488V76.35C10.7037 72.8637 13.278 70.0375 16.4537 70.0375H67.8647C68.5059 70.0375 69.0696 70.5037 69.2465 71.1804C69.4225 71.8541 69.1727 72.5741 68.634 72.9487C68.6329 72.9495 68.6314 72.9505 68.6303 72.9513M68.5207 86.479C68.5178 86.4773 68.5106 86.4731 68.4995 86.4665C68.4774 86.4532 68.4396 86.4301 68.3886 86.3971C68.2864 86.331 68.1324 86.2263 67.9455 86.083C67.5688 85.7942 67.0739 85.3609 66.5996 84.7865C65.6569 83.6451 64.8453 82.0209 65.0818 79.8317C65.3431 77.4122 66.2558 75.6783 67.0975 74.5473C67.5199 73.9797 67.9231 73.5664 68.2128 73.3006C68.3573 73.1681 68.4724 73.0734 68.5458 73.0156C68.5825 72.9868 68.6086 72.9672 68.6227 72.9569L68.6303 72.9513L68.6288 72.9523L68.6279 72.9529M68.5207 86.479L68.5199 86.4785L68.5183 86.4776" fill="black"/>
<path d="M25.2548 57.3021H58.7643" stroke="white" stroke-width="2" stroke-linecap="round" stroke-linejoin="round"/>
<path d="M25.2548 61.3428H43.5467" stroke="white" stroke-width="2" stroke-linecap="round" stroke-linejoin="round"/>
<path d="M55.3058 34.2606H61.2619V43.257C61.2619 44.1705 60.1378 44.6057 59.5227 43.9304L59.0231 43.382C58.6265 42.9465 57.9412 42.9465 57.5446 43.382L57.0451 43.9304C56.4299 44.6057 55.3058 44.1705 55.3058 43.257V34.2606Z" fill="black"/>
<path d="M15.4172 75.7088H48.9267" stroke="black" stroke-width="2" stroke-linecap="round" stroke-linejoin="round"/>
<path d="M15.4172 79.7495H33.709" stroke="black" stroke-width="2" stroke-linecap="round" stroke-linejoin="round"/>
<path d="M19.7211 39.0213H47.8506" stroke="black" stroke-width="2" stroke-linecap="round" stroke-linejoin="round"/>
</svg>
