<svg width="284" height="81" viewBox="0 0 284 81" fill="none" xmlns="http://www.w3.org/2000/svg">
<path d="M165.523 60V30.9091H175.693C177.72 30.9091 179.391 31.2595 180.707 31.9602C182.024 32.6515 183.004 33.5843 183.648 34.7585C184.292 35.9233 184.614 37.2159 184.614 38.6364C184.614 39.8864 184.391 40.9186 183.946 41.733C183.51 42.5473 182.933 43.1913 182.213 43.6648C181.503 44.1383 180.731 44.4886 179.898 44.7159V45C180.788 45.0568 181.683 45.3693 182.582 45.9375C183.482 46.5057 184.235 47.3201 184.841 48.3807C185.447 49.4413 185.75 50.7386 185.75 52.2727C185.75 53.7311 185.419 55.0426 184.756 56.2074C184.093 57.3722 183.046 58.2955 181.616 58.9773C180.187 59.6591 178.326 60 176.034 60H165.523ZM169.045 56.875H176.034C178.335 56.875 179.969 56.4299 180.935 55.5398C181.91 54.6401 182.398 53.5511 182.398 52.2727C182.398 51.2879 182.147 50.3788 181.645 49.5455C181.143 48.7027 180.428 48.0303 179.5 47.5284C178.572 47.017 177.473 46.7614 176.205 46.7614H169.045V56.875ZM169.045 43.6932H175.58C176.64 43.6932 177.597 43.4848 178.449 43.0682C179.311 42.6515 179.992 42.0644 180.494 41.3068C181.006 40.5492 181.261 39.6591 181.261 38.6364C181.261 37.358 180.816 36.2737 179.926 35.3835C179.036 34.4839 177.625 34.0341 175.693 34.0341H169.045V43.6932Z" fill="white"/>
<path d="M197.504 60.5114C196.122 60.5114 194.867 60.2509 193.74 59.7301C192.613 59.1998 191.718 58.4375 191.055 57.4432C190.393 56.4394 190.061 55.2273 190.061 53.8068C190.061 52.5568 190.307 51.5436 190.8 50.767C191.292 49.9811 191.95 49.3655 192.774 48.9205C193.598 48.4754 194.507 48.1439 195.501 47.9261C196.505 47.6989 197.514 47.5189 198.527 47.3864C199.853 47.2159 200.928 47.0881 201.751 47.0028C202.585 46.9081 203.191 46.7519 203.57 46.5341C203.958 46.3163 204.152 45.9375 204.152 45.3977V45.2841C204.152 43.8826 203.768 42.7936 203.001 42.017C202.244 41.2405 201.093 40.8523 199.55 40.8523C197.949 40.8523 196.695 41.2026 195.786 41.9034C194.876 42.6042 194.237 43.3523 193.868 44.1477L190.686 43.0114C191.254 41.6856 192.012 40.6534 192.959 39.9148C193.915 39.1667 194.957 38.6458 196.084 38.3523C197.22 38.0492 198.338 37.8977 199.436 37.8977C200.137 37.8977 200.942 37.983 201.851 38.1534C202.769 38.3144 203.655 38.6506 204.507 39.1619C205.369 39.6733 206.084 40.4451 206.652 41.4773C207.22 42.5095 207.504 43.892 207.504 45.625V60H204.152V57.0455H203.982C203.754 57.5189 203.375 58.0256 202.845 58.5653C202.315 59.1051 201.609 59.5644 200.729 59.9432C199.848 60.322 198.773 60.5114 197.504 60.5114ZM198.016 57.5C199.341 57.5 200.459 57.2396 201.368 56.7187C202.286 56.1979 202.978 55.5256 203.442 54.7017C203.915 53.8778 204.152 53.0114 204.152 52.1023V49.0341C204.01 49.2045 203.697 49.3608 203.214 49.5028C202.741 49.6354 202.192 49.7538 201.567 49.858C200.951 49.9527 200.35 50.0379 199.763 50.1136C199.185 50.1799 198.716 50.2367 198.357 50.2841C197.485 50.3977 196.671 50.5824 195.913 50.8381C195.165 51.0843 194.559 51.4583 194.095 51.9602C193.641 52.4526 193.413 53.125 193.413 53.9773C193.413 55.142 193.844 56.0227 194.706 56.6193C195.577 57.2064 196.68 57.5 198.016 57.5Z" fill="white"/>
<path d="M228.509 68.1818V56.6477H228.225C227.979 57.0455 227.629 57.5473 227.174 58.1534C226.719 58.75 226.071 59.285 225.228 59.7585C224.385 60.2225 223.263 60.4545 221.861 60.4545C220.043 60.4545 218.438 59.9953 217.046 59.0767C215.654 58.1487 214.565 56.8419 213.779 55.1562C212.993 53.4612 212.6 51.4583 212.6 49.1477C212.6 46.8561 212.993 44.8674 213.779 43.1818C214.565 41.4962 215.659 40.1941 217.06 39.2756C218.462 38.357 220.081 37.8977 221.918 37.8977C223.339 37.8977 224.461 38.1345 225.285 38.608C226.118 39.072 226.753 39.6023 227.188 40.1989C227.633 40.786 227.979 41.2689 228.225 41.6477H228.623V38.1818H231.862V68.1818H228.509ZM222.316 57.4432C223.661 57.4432 224.797 57.0928 225.725 56.392C226.653 55.6818 227.359 54.7017 227.842 53.4517C228.325 52.1922 228.566 50.7386 228.566 49.0909C228.566 47.4621 228.329 46.0369 227.856 44.8153C227.382 43.5843 226.682 42.6278 225.754 41.946C224.826 41.2547 223.68 40.9091 222.316 40.9091C220.896 40.9091 219.712 41.2737 218.765 42.0028C217.827 42.7225 217.122 43.7027 216.648 44.9432C216.184 46.1742 215.952 47.5568 215.952 49.0909C215.952 50.6439 216.189 52.0549 216.663 53.3239C217.146 54.5833 217.856 55.5871 218.793 56.3352C219.74 57.0739 220.915 57.4432 222.316 57.4432Z" fill="white"/>
<path d="M247.146 60.4545C245.043 60.4545 243.23 59.9905 241.705 59.0625C240.19 58.125 239.021 56.8182 238.197 55.142C237.382 53.4564 236.975 51.4962 236.975 49.2614C236.975 47.0265 237.382 45.0568 238.197 43.3523C239.021 41.6383 240.166 40.303 241.634 39.3466C243.111 38.3807 244.835 37.8977 246.805 37.8977C247.941 37.8977 249.063 38.0871 250.171 38.4659C251.279 38.8447 252.288 39.4602 253.197 40.3125C254.106 41.1553 254.83 42.2727 255.37 43.6648C255.91 45.0568 256.18 46.7708 256.18 48.8068V50.2273H239.361V47.3295H252.771C252.771 46.0985 252.524 45 252.032 44.0341C251.549 43.0682 250.858 42.3059 249.958 41.7472C249.068 41.1884 248.017 40.9091 246.805 40.9091C245.469 40.9091 244.314 41.2405 243.339 41.9034C242.373 42.5568 241.629 43.4091 241.109 44.4602C240.588 45.5114 240.327 46.6383 240.327 47.8409V49.7727C240.327 51.4205 240.611 52.8172 241.18 53.9631C241.757 55.0994 242.558 55.9659 243.58 56.5625C244.603 57.1496 245.791 57.4432 247.146 57.4432C248.026 57.4432 248.822 57.3201 249.532 57.0739C250.252 56.8182 250.872 56.4394 251.393 55.9375C251.914 55.4261 252.316 54.7917 252.6 54.0341L255.839 54.9432C255.498 56.0417 254.925 57.0076 254.12 57.8409C253.315 58.6648 252.321 59.3087 251.137 59.7727C249.953 60.2273 248.623 60.4545 247.146 60.4545Z" fill="white"/>
<path d="M261.279 60V38.1818H264.518V41.4773H264.745C265.143 40.3977 265.862 39.5218 266.904 38.8494C267.946 38.1771 269.12 37.8409 270.427 37.8409C270.673 37.8409 270.981 37.8456 271.35 37.8551C271.719 37.8646 271.999 37.8788 272.188 37.8977V41.3068C272.075 41.2784 271.814 41.2358 271.407 41.179C271.009 41.1127 270.588 41.0795 270.143 41.0795C269.082 41.0795 268.135 41.3021 267.302 41.7472C266.478 42.1828 265.825 42.7888 265.342 43.5653C264.868 44.3324 264.631 45.2083 264.631 46.1932V60H261.279Z" fill="white"/>
<g clip-path="url(#clip0_1_148)">
<path d="M277.233 5L293.245 33.8861L283.012 39.5583L267 10.6723L277.233 5Z" fill="#9DED1A" fill-opacity="0.35"/>
<path d="M192.503 63L197.851 90.5121L187.348 92.5537L182 65.0417L192.503 63Z" fill="#4BC8EF" fill-opacity="0.65"/>
<path d="M153.305 12.6525C153.305 15.222 151.222 17.305 148.653 17.305C146.083 17.305 144 15.222 144 12.6525C144 10.083 146.083 8 148.653 8C151.222 8 153.305 10.083 153.305 12.6525Z" fill="#03A3F5" fill-opacity="0.75"/>
<path d="M194.305 43.1525C194.305 46.5504 191.55 49.305 188.153 49.305C184.755 49.305 182 46.5504 182 43.1525C182 39.7546 184.755 37 188.153 37C191.55 37 194.305 39.7546 194.305 43.1525Z" fill="#DCBCFA" fill-opacity="0.65"/>
<path d="M224.305 13.1525C224.305 15.9981 221.998 18.305 219.153 18.305C216.307 18.305 214 15.9981 214 13.1525C214 10.3069 216.307 8 219.153 8C221.998 8 224.305 10.3069 224.305 13.1525Z" fill="#03A3F5" fill-opacity="0.35"/>
<path d="M149.172 60.6354L155.912 61.703L156.98 68.4431L150.9 71.5413L146.074 66.7158L149.172 60.6354Z" fill="#DCBCFA" fill-opacity="0.85"/>
<path d="M184.673 25.3381L176.987 23.9828L174.317 16.6485L179.334 10.6695L187.021 12.0248L189.69 19.3591L184.673 25.3381Z" fill="#C9FCBE" fill-opacity="0.6"/>
<path d="M230.693 80.4075L218 77.477L219.957 69L232.65 71.9305L230.693 80.4075Z" fill="#BA3E03" fill-opacity="0.35"/>
</g>
<defs>
<clipPath id="clip0_1_148">
<rect width="284" height="81" fill="white"/>
</clipPath>
</defs>
</svg>
