<svg width="24" height="30" viewBox="0 0 24 30" fill="none" xmlns="http://www.w3.org/2000/svg">
<path d="M12.2376 2.43137H11.7976C11.2671 2.43137 10.7584 2.68754 10.3834 3.14351C10.0083 3.59948 9.79758 4.21791 9.79758 4.86275V5.08157C9.79722 5.50794 9.70464 5.9267 9.52912 6.29584C9.3536 6.66498 9.10132 6.97152 8.79758 7.18471L8.36758 7.48863C8.06354 7.70203 7.71865 7.81437 7.36758 7.81437C7.01651 7.81437 6.67162 7.70203 6.36758 7.48863L6.21758 7.39137C5.75864 7.06954 5.21342 6.98223 4.70158 7.14861C4.18975 7.31499 3.75313 7.72148 3.48758 8.27882L3.26758 8.74079C3.00284 9.29871 2.93102 9.96153 3.06789 10.5838C3.20475 11.206 3.53912 11.7368 3.99758 12.0596L4.14758 12.1812C4.44986 12.3933 4.7012 12.698 4.87663 13.0648C5.05206 13.4316 5.14547 13.8478 5.14758 14.2722V14.8922C5.14898 15.3206 5.05723 15.7419 4.88162 16.1133C4.70602 16.4848 4.45279 16.7932 4.14758 17.0075L3.99758 17.1169C3.53912 17.4397 3.20475 17.9705 3.06789 18.5927C2.93102 19.2149 3.00284 19.8778 3.26758 20.4357L3.48758 20.8976C3.75313 21.455 4.18975 21.8615 4.70158 22.0279C5.21342 22.1942 5.75864 22.1069 6.21758 21.7851L6.36758 21.6878C6.67162 21.4744 7.01651 21.3621 7.36758 21.3621C7.71865 21.3621 8.06354 21.4744 8.36758 21.6878L8.79758 21.9918C9.10132 22.205 9.3536 22.5115 9.52912 22.8806C9.70464 23.2498 9.79722 23.6685 9.79758 24.0949V24.3137C9.79758 24.9586 10.0083 25.577 10.3834 26.033C10.7584 26.4889 11.2671 26.7451 11.7976 26.7451H12.2376C12.768 26.7451 13.2767 26.4889 13.6518 26.033C14.0269 25.577 14.2376 24.9586 14.2376 24.3137V24.0949C14.2379 23.6685 14.3305 23.2498 14.506 22.8806C14.6816 22.5115 14.9338 22.205 15.2376 21.9918L15.6676 21.6878C15.9716 21.4744 16.3165 21.3621 16.6676 21.3621C17.0187 21.3621 17.3635 21.4744 17.6676 21.6878L17.8176 21.7851C18.2765 22.1069 18.8217 22.1942 19.3336 22.0279C19.8454 21.8615 20.282 21.455 20.5476 20.8976L20.7676 20.4235C21.0323 19.8656 21.1041 19.2028 20.9673 18.5806C20.8304 17.9583 20.496 17.4275 20.0376 17.1047L19.8876 17.0075C19.5824 16.7932 19.3291 16.4848 19.1535 16.1133C18.9779 15.7419 18.8862 15.3206 18.8876 14.8922V14.2843C18.8862 13.8559 18.9779 13.4346 19.1535 13.0631C19.3291 12.6917 19.5824 12.3832 19.8876 12.169L20.0376 12.0596C20.496 11.7368 20.8304 11.206 20.9673 10.5838C21.1041 9.96153 21.0323 9.29871 20.7676 8.74079L20.5476 8.27882C20.282 7.72148 19.8454 7.31499 19.3336 7.14861C18.8217 6.98223 18.2765 7.06954 17.8176 7.39137L17.6676 7.48863C17.3635 7.70203 17.0187 7.81437 16.6676 7.81437C16.3165 7.81437 15.9716 7.70203 15.6676 7.48863L15.2376 7.18471C14.9338 6.97152 14.6816 6.66498 14.506 6.29584C14.3305 5.9267 14.2379 5.50794 14.2376 5.08157V4.86275C14.2376 4.21791 14.0269 3.59948 13.6518 3.14351C13.2767 2.68754 12.768 2.43137 12.2376 2.43137Z" stroke="white" stroke-linecap="round" stroke-linejoin="round"/>
<path d="M12 18.2353C13.6569 18.2353 15 16.6025 15 14.5882C15 12.574 13.6569 10.9412 12 10.9412C10.3431 10.9412 9 12.574 9 14.5882C9 16.6025 10.3431 18.2353 12 18.2353Z" stroke="white" stroke-linecap="round" stroke-linejoin="round"/>
</svg>
