<svg width="24" height="30" viewBox="0 0 24 30" fill="none" xmlns="http://www.w3.org/2000/svg">
<path d="M8 26.7451C8.55228 26.7451 9 26.2008 9 25.5294C9 24.858 8.55228 24.3137 8 24.3137C7.44772 24.3137 7 24.858 7 25.5294C7 26.2008 7.44772 26.7451 8 26.7451Z" stroke="white" stroke-linecap="round" stroke-linejoin="round"/>
<path d="M19 26.7451C19.5523 26.7451 20 26.2008 20 25.5294C20 24.858 19.5523 24.3137 19 24.3137C18.4477 24.3137 18 24.858 18 25.5294C18 26.2008 18.4477 26.7451 19 26.7451Z" stroke="white" stroke-linecap="round" stroke-linejoin="round"/>
<path d="M2.05005 2.49216H4.05005L6.71005 17.591C6.80763 18.144 7.06072 18.6383 7.42576 18.9889C7.7908 19.3394 8.24495 19.5243 8.71005 19.5118H18.49C18.9452 19.5109 19.3865 19.3213 19.7411 18.9742C20.0956 18.6272 20.3422 18.1435 20.4401 17.6031L22.09 8.57059H5.12005" stroke="white" stroke-linecap="round" stroke-linejoin="round"/>
</svg>
