<svg width="53" height="65" viewBox="0 0 53 65" fill="none" xmlns="http://www.w3.org/2000/svg">
<g filter="url(#filter0_d_1_381)">
<path d="M17.1895 32.0319L22.5313 34.9885L11.6837 53L8.5702 46.3434L17.1895 32.0319Z" fill="#418ED6"/>
<path d="M17.1895 32.0319L11.8476 29.0754L0.999957 47.0869L8.5702 46.3434L17.1895 32.0319Z" fill="#2B63A6"/>
<path d="M24.8104 32.0319L19.4686 34.9885L30.3162 53L33.4297 46.3434L24.8104 32.0319Z" fill="#2B63A6"/>
<path d="M24.8104 32.0319L30.1523 29.0754L40.9999 47.0869L33.4297 46.3434L24.8104 32.0319Z" fill="#418ED6"/>
<path d="M20.9914 37.7606C31.4045 37.7606 39.8824 29.6631 39.8824 19.6303C39.8824 9.59752 31.4045 1.5 20.9914 1.5C10.5783 1.5 2.10034 9.59752 2.10034 19.6303C2.10034 29.6631 10.5783 37.7606 20.9914 37.7606Z" fill="#E3E3E3" stroke="#404040"/>
<ellipse cx="20.9915" cy="19.6303" rx="14.3558" ry="13.7621" fill="#595959"/>
<mask id="mask0_1_381" style="mask-type:alpha" maskUnits="userSpaceOnUse" x="7" y="7" width="30" height="28">
<ellipse cx="21.7577" cy="21.0995" rx="14.3893" ry="13.7941" fill="#C28B37"/>
</mask>
<g mask="url(#mask0_1_381)">
<ellipse cx="20.9913" cy="19.6303" rx="14.3893" ry="13.7941" fill="url(#paint0_linear_1_381)"/>
</g>
<path d="M21.069 10.0341L24.1729 15.9852L30.3809 16.7291L26.1181 21.3115L27.2769 27.8875L21.069 24.912L14.861 27.8875L16.0302 21.3115L11.7571 16.7291L17.965 15.9852L21.069 10.0341Z" fill="url(#paint1_linear_1_381)"/>
</g>
<defs>
<filter id="filter0_d_1_381" x="0.216502" y="0.216502" width="52.5358" height="64.536" filterUnits="userSpaceOnUse" color-interpolation-filters="sRGB">
<feFlood flood-opacity="0" result="BackgroundImageFix"/>
<feColorMatrix in="SourceAlpha" type="matrix" values="0 0 0 0 0 0 0 0 0 0 0 0 0 0 0 0 0 0 127 0" result="hardAlpha"/>
<feOffset dx="5.48449" dy="5.48449"/>
<feGaussianBlur stdDeviation="3.13399"/>
<feComposite in2="hardAlpha" operator="out"/>
<feColorMatrix type="matrix" values="0 0 0 0 0 0 0 0 0 0 0 0 0 0 0 0 0 0 0.3 0"/>
<feBlend mode="normal" in2="BackgroundImageFix" result="effect1_dropShadow_1_381"/>
<feBlend mode="normal" in="SourceGraphic" in2="effect1_dropShadow_1_381" result="shape"/>
</filter>
<linearGradient id="paint0_linear_1_381" x1="20.9913" y1="5.83624" x2="20.9913" y2="33.4244" gradientUnits="userSpaceOnUse">
<stop stop-color="#9CA1A3"/>
<stop offset="1" stop-color="#9CA1A3" stop-opacity="0"/>
</linearGradient>
<linearGradient id="paint1_linear_1_381" x1="21.069" y1="10.0341" x2="21.069" y2="27.8875" gradientUnits="userSpaceOnUse">
<stop stop-color="#F1F5F5"/>
<stop offset="0.0001" stop-color="white"/>
<stop offset="1" stop-color="#F1F5F5"/>
</linearGradient>
</defs>
</svg>
