<svg width="135" height="87" viewBox="0 0 135 87" fill="none" xmlns="http://www.w3.org/2000/svg">
<path d="M37.5727 6.5407C26.9611 6.64403 21.8403 -1.43635 12.2731 1.08276C4.84046 3.03982 0.164996 8.61277 0.579872 16.1971C1.06442 25.0551 4.81394 26.4937 5.89499 35.3001C7.59577 49.155 3.95703 47.9057 0.579872 60.9106C-1.54614 69.0976 2.13445 79.2339 12.2731 82.1128C21.5593 84.7497 29.6468 80.2439 39.2737 81.0632C48.1894 81.822 51.1493 84.6544 59.896 86.5212C76.9373 90.1582 82.5994 71.6951 99.0151 77.4945C106.786 80.2398 112.105 82.2156 120.275 81.0632C129.205 79.8037 133.112 75.0601 134.52 67.4182C137.071 53.5634 128.6 50.5342 129.205 38.4489C129.679 28.9646 135.714 29.3981 134.52 19.9757C133.264 10.0717 126.837 3.7162 117.086 1.08272C108.268 -1.29899 103.043 6.076 93.9126 6.5407C81.3746 7.17885 75.4124 -0.566221 62.8725 0.0331041C52.6745 0.5205 47.7821 6.44129 37.5727 6.5407Z" fill="#D1DCFF"/>
</svg>
